<mxfile host="app.diagrams.net" modified="2024-03-29T19:57:31.985Z" agent="Mozilla/5.0 (Windows NT 10.0; Win64; x64) AppleWebKit/537.36 (KHTML, like Gecko) Chrome/123.0.0.0 Safari/537.36" etag="3II5SmM0PKz5eMsCLK7V" version="24.1.0" type="google">
  <diagram name="Página-1" id="XkicSwHo4gfjiSV6A3i-">
    <mxGraphModel grid="1" page="1" gridSize="10" guides="1" tooltips="1" connect="1" arrows="1" fold="1" pageScale="1" pageWidth="827" pageHeight="1169" math="0" shadow="0">
      <root>
        <mxCell id="0" />
        <mxCell id="1" parent="0" />
        <mxCell id="w0aAWbvhuxzaIb0BOkWs-4" value="" style="edgeStyle=orthogonalEdgeStyle;rounded=0;orthogonalLoop=1;jettySize=auto;html=1;" edge="1" parent="1" source="w0aAWbvhuxzaIb0BOkWs-1" target="w0aAWbvhuxzaIb0BOkWs-3">
          <mxGeometry relative="1" as="geometry" />
        </mxCell>
        <mxCell id="w0aAWbvhuxzaIb0BOkWs-1" value="Início&amp;nbsp;" style="strokeWidth=2;html=1;shape=mxgraph.flowchart.terminator;whiteSpace=wrap;" vertex="1" parent="1">
          <mxGeometry x="330" y="40" width="100" height="40" as="geometry" />
        </mxCell>
        <mxCell id="w0aAWbvhuxzaIb0BOkWs-2" value="" style="verticalLabelPosition=bottom;verticalAlign=top;html=1;shape=card;whiteSpace=wrap;size=20;arcSize=12;" vertex="1" parent="1">
          <mxGeometry x="330" y="140" width="100" height="50" as="geometry" />
        </mxCell>
        <mxCell id="w0aAWbvhuxzaIb0BOkWs-7" value="" style="edgeStyle=orthogonalEdgeStyle;rounded=0;orthogonalLoop=1;jettySize=auto;html=1;" edge="1" parent="1" source="w0aAWbvhuxzaIb0BOkWs-3" target="w0aAWbvhuxzaIb0BOkWs-6">
          <mxGeometry relative="1" as="geometry" />
        </mxCell>
        <mxCell id="w0aAWbvhuxzaIb0BOkWs-3" value="n" style="text;strokeColor=none;align=center;fillColor=none;html=1;verticalAlign=middle;whiteSpace=wrap;rounded=0;" vertex="1" parent="1">
          <mxGeometry x="345" y="149" width="70" height="40" as="geometry" />
        </mxCell>
        <mxCell id="w0aAWbvhuxzaIb0BOkWs-9" value="" style="edgeStyle=orthogonalEdgeStyle;rounded=0;orthogonalLoop=1;jettySize=auto;html=1;" edge="1" parent="1" source="w0aAWbvhuxzaIb0BOkWs-6" target="w0aAWbvhuxzaIb0BOkWs-8">
          <mxGeometry relative="1" as="geometry" />
        </mxCell>
        <mxCell id="w0aAWbvhuxzaIb0BOkWs-6" value="i = n&lt;div&gt;maior = 0&lt;/div&gt;" style="rounded=1;whiteSpace=wrap;html=1;absoluteArcSize=1;arcSize=14;strokeWidth=2;" vertex="1" parent="1">
          <mxGeometry x="320" y="240" width="120" height="50" as="geometry" />
        </mxCell>
        <mxCell id="w0aAWbvhuxzaIb0BOkWs-11" value="" style="edgeStyle=orthogonalEdgeStyle;rounded=0;orthogonalLoop=1;jettySize=auto;html=1;" edge="1" parent="1" source="w0aAWbvhuxzaIb0BOkWs-8" target="w0aAWbvhuxzaIb0BOkWs-10">
          <mxGeometry relative="1" as="geometry" />
        </mxCell>
        <mxCell id="w0aAWbvhuxzaIb0BOkWs-14" value="" style="edgeStyle=orthogonalEdgeStyle;rounded=0;orthogonalLoop=1;jettySize=auto;html=1;" edge="1" parent="1" source="w0aAWbvhuxzaIb0BOkWs-8" target="w0aAWbvhuxzaIb0BOkWs-13">
          <mxGeometry relative="1" as="geometry" />
        </mxCell>
        <mxCell id="w0aAWbvhuxzaIb0BOkWs-8" value="i &amp;gt; 0" style="strokeWidth=2;html=1;shape=mxgraph.flowchart.decision;whiteSpace=wrap;" vertex="1" parent="1">
          <mxGeometry x="330" y="340" width="100" height="80" as="geometry" />
        </mxCell>
        <mxCell id="w0aAWbvhuxzaIb0BOkWs-29" style="edgeStyle=orthogonalEdgeStyle;rounded=0;orthogonalLoop=1;jettySize=auto;html=1;" edge="1" parent="1" source="w0aAWbvhuxzaIb0BOkWs-10" target="w0aAWbvhuxzaIb0BOkWs-28">
          <mxGeometry relative="1" as="geometry" />
        </mxCell>
        <mxCell id="w0aAWbvhuxzaIb0BOkWs-10" value="Exibir maior" style="strokeWidth=2;html=1;shape=mxgraph.flowchart.document2;whiteSpace=wrap;size=0.25;" vertex="1" parent="1">
          <mxGeometry x="120" y="350" width="100" height="60" as="geometry" />
        </mxCell>
        <mxCell id="w0aAWbvhuxzaIb0BOkWs-12" value="Não&amp;nbsp;" style="text;strokeColor=none;align=center;fillColor=none;html=1;verticalAlign=middle;whiteSpace=wrap;rounded=0;" vertex="1" parent="1">
          <mxGeometry x="240" y="347" width="70" height="40" as="geometry" />
        </mxCell>
        <mxCell id="w0aAWbvhuxzaIb0BOkWs-13" value="" style="verticalLabelPosition=bottom;verticalAlign=top;html=1;shape=card;whiteSpace=wrap;size=20;arcSize=12;" vertex="1" parent="1">
          <mxGeometry x="540" y="355" width="100" height="50" as="geometry" />
        </mxCell>
        <mxCell id="w0aAWbvhuxzaIb0BOkWs-17" value="" style="edgeStyle=orthogonalEdgeStyle;rounded=0;orthogonalLoop=1;jettySize=auto;html=1;" edge="1" parent="1" source="w0aAWbvhuxzaIb0BOkWs-15" target="w0aAWbvhuxzaIb0BOkWs-16">
          <mxGeometry relative="1" as="geometry">
            <Array as="points">
              <mxPoint x="600" y="380" />
            </Array>
          </mxGeometry>
        </mxCell>
        <mxCell id="w0aAWbvhuxzaIb0BOkWs-15" value="num" style="text;strokeColor=none;align=center;fillColor=none;html=1;verticalAlign=middle;whiteSpace=wrap;rounded=0;" vertex="1" parent="1">
          <mxGeometry x="555" y="365" width="70" height="40" as="geometry" />
        </mxCell>
        <mxCell id="w0aAWbvhuxzaIb0BOkWs-20" value="" style="edgeStyle=orthogonalEdgeStyle;rounded=0;orthogonalLoop=1;jettySize=auto;html=1;" edge="1" parent="1" source="w0aAWbvhuxzaIb0BOkWs-16" target="w0aAWbvhuxzaIb0BOkWs-18">
          <mxGeometry relative="1" as="geometry" />
        </mxCell>
        <mxCell id="w0aAWbvhuxzaIb0BOkWs-25" value="" style="edgeStyle=orthogonalEdgeStyle;rounded=0;orthogonalLoop=1;jettySize=auto;html=1;" edge="1" parent="1" source="w0aAWbvhuxzaIb0BOkWs-16" target="w0aAWbvhuxzaIb0BOkWs-19">
          <mxGeometry relative="1" as="geometry" />
        </mxCell>
        <mxCell id="w0aAWbvhuxzaIb0BOkWs-16" value="maior &amp;gt; num" style="strokeWidth=2;html=1;shape=mxgraph.flowchart.decision;whiteSpace=wrap;" vertex="1" parent="1">
          <mxGeometry x="540" y="440" width="100" height="80" as="geometry" />
        </mxCell>
        <mxCell id="w0aAWbvhuxzaIb0BOkWs-18" value="maior = num" style="rounded=1;whiteSpace=wrap;html=1;absoluteArcSize=1;arcSize=14;strokeWidth=2;" vertex="1" parent="1">
          <mxGeometry x="540" y="565" width="100" height="40" as="geometry" />
        </mxCell>
        <mxCell id="w0aAWbvhuxzaIb0BOkWs-22" value="" style="edgeStyle=orthogonalEdgeStyle;rounded=0;orthogonalLoop=1;jettySize=auto;html=1;" edge="1" parent="1" source="w0aAWbvhuxzaIb0BOkWs-19" target="w0aAWbvhuxzaIb0BOkWs-21">
          <mxGeometry relative="1" as="geometry" />
        </mxCell>
        <mxCell id="w0aAWbvhuxzaIb0BOkWs-19" value="maior = maior" style="rounded=1;whiteSpace=wrap;html=1;absoluteArcSize=1;arcSize=14;strokeWidth=2;" vertex="1" parent="1">
          <mxGeometry x="410" y="460" width="100" height="40" as="geometry" />
        </mxCell>
        <mxCell id="w0aAWbvhuxzaIb0BOkWs-24" value="" style="edgeStyle=orthogonalEdgeStyle;rounded=0;orthogonalLoop=1;jettySize=auto;html=1;" edge="1" parent="1" source="w0aAWbvhuxzaIb0BOkWs-21" target="w0aAWbvhuxzaIb0BOkWs-8">
          <mxGeometry relative="1" as="geometry" />
        </mxCell>
        <mxCell id="w0aAWbvhuxzaIb0BOkWs-21" value="" style="shape=waypoint;sketch=0;size=6;pointerEvents=1;points=[];fillColor=default;resizable=0;rotatable=0;perimeter=centerPerimeter;snapToPoint=1;rounded=1;arcSize=14;strokeWidth=2;" vertex="1" parent="1">
          <mxGeometry x="370" y="470" width="20" height="20" as="geometry" />
        </mxCell>
        <mxCell id="w0aAWbvhuxzaIb0BOkWs-23" style="edgeStyle=orthogonalEdgeStyle;rounded=0;orthogonalLoop=1;jettySize=auto;html=1;entryX=0.25;entryY=1.15;entryDx=0;entryDy=0;entryPerimeter=0;" edge="1" parent="1" source="w0aAWbvhuxzaIb0BOkWs-18" target="w0aAWbvhuxzaIb0BOkWs-21">
          <mxGeometry relative="1" as="geometry" />
        </mxCell>
        <mxCell id="w0aAWbvhuxzaIb0BOkWs-26" value="Não&amp;nbsp;" style="text;strokeColor=none;align=center;fillColor=none;html=1;verticalAlign=middle;whiteSpace=wrap;rounded=0;" vertex="1" parent="1">
          <mxGeometry x="570" y="520" width="70" height="40" as="geometry" />
        </mxCell>
        <mxCell id="w0aAWbvhuxzaIb0BOkWs-27" value="Sim" style="text;strokeColor=none;align=center;fillColor=none;html=1;verticalAlign=middle;whiteSpace=wrap;rounded=0;" vertex="1" parent="1">
          <mxGeometry x="492" y="449" width="70" height="40" as="geometry" />
        </mxCell>
        <mxCell id="w0aAWbvhuxzaIb0BOkWs-28" value="Fim" style="strokeWidth=2;html=1;shape=mxgraph.flowchart.terminator;whiteSpace=wrap;" vertex="1" parent="1">
          <mxGeometry x="120" y="545" width="100" height="60" as="geometry" />
        </mxCell>
      </root>
    </mxGraphModel>
  </diagram>
</mxfile>
